<?xml version="1.0" standalone="no"?><!DOCTYPE svg PUBLIC "-//W3C//DTD SVG 1.1//EN" "http://www.w3.org/Graphics/SVG/1.1/DTD/svg11.dtd"><svg t="1643900362654" class="icon" viewBox="0 0 1024 1024" version="1.1" xmlns="http://www.w3.org/2000/svg" p-id="3391" xmlns:xlink="http://www.w3.org/1999/xlink" width="250" height="250"><defs><style type="text/css"></style></defs><path d="M512 85.333333C277.333333 85.333333 85.333333 277.333333 85.333333 512s192 426.666667 426.666667 426.666667 426.666667-192 426.666667-426.666667S746.666667 85.333333 512 85.333333z m230.4 324.266667l-256 256c-12.8 12.8-34.133333 12.8-46.933333 0h4.266666c-4.266667 0-12.8-4.266667-17.066666-8.533333l-140.8-140.8c-12.8-12.8-12.8-34.133333 0-51.2 12.8-12.8 34.133333-12.8 51.2 0l128 128 234.666666-234.666667c12.8-12.8 34.133333-12.8 46.933334 0l4.266666 4.266667c4.266667 12.8 4.266667 34.133333-8.533333 46.933333z" p-id="3392" fill="#ffffff"></path></svg>